<svg width="479" height="191" viewBox="0 0 479 191" fill="none" xmlns="http://www.w3.org/2000/svg">
<rect x="33" y="15" width="407" height="143" rx="17" fill="black"/>
<path d="M48 66C48 57.7157 54.7157 51 63 51H275.5C283.784 51 290.5 57.7157 290.5 66V106C290.5 114.284 283.784 121 275.5 121H63C54.7157 121 48 114.284 48 106V66Z" fill="white"/>
<path d="M82.2465 94.2727L82.7011 89.2727L78.5533 92.1705L76.2806 88.1932L80.8261 86.0909L76.2806 83.9886L78.5533 80.0114L82.7011 82.9091L82.2465 77.9091H86.792L86.3374 82.9091L90.4852 80.0114L92.7579 83.9886L88.2124 86.0909L92.7579 88.1932L90.4852 92.1705L86.3374 89.2727L86.792 94.2727H82.2465ZM123.982 94.2727L124.437 89.2727L120.289 92.1705L118.017 88.1932L122.562 86.0909L118.017 83.9886L120.289 80.0114L124.437 82.9091L123.982 77.9091H128.528L128.073 82.9091L132.221 80.0114L134.494 83.9886L129.948 86.0909L134.494 88.1932L132.221 92.1705L128.073 89.2727L128.528 94.2727H123.982ZM165.718 94.2727L166.173 89.2727L162.025 92.1705L159.752 88.1932L164.298 86.0909L159.752 83.9886L162.025 80.0114L166.173 82.9091L165.718 77.9091H170.264L169.809 82.9091L173.957 80.0114L176.23 83.9886L171.684 86.0909L176.23 88.1932L173.957 92.1705L169.809 89.2727L170.264 94.2727H165.718ZM207.454 94.2727L207.909 89.2727L203.761 92.1705L201.488 88.1932L206.034 86.0909L201.488 83.9886L203.761 80.0114L207.909 82.9091L207.454 77.9091H212L211.545 82.9091L215.693 80.0114L217.966 83.9886L213.42 86.0909L217.966 88.1932L215.693 92.1705L211.545 89.2727L212 94.2727H207.454ZM249.19 94.2727L249.645 89.2727L245.497 92.1705L243.224 88.1932L247.77 86.0909L243.224 83.9886L245.497 80.0114L249.645 82.9091L249.19 77.9091H253.736L253.281 82.9091L257.429 80.0114L259.702 83.9886L255.156 86.0909L259.702 88.1932L257.429 92.1705L253.281 89.2727L253.736 94.2727H249.19Z" fill="black"/>
<rect x="329" y="70" width="55" height="51" rx="4" fill="white"/>
<path d="M338 77C336.288 77.2698 335.962 50.7269 357 51.0102C378.038 51.2934 376 77 376 77" stroke="white" stroke-width="10"/>
<circle cx="357" cy="89" r="7" fill="black"/>
<rect x="353" y="94" width="8" height="13" fill="black"/>
</svg>
